<svg width="135" height="68" fill="none" xmlns="http://www.w3.org/2000/svg"><path d="M2.81 63.345h2.952v-3.263h10v-2.304h-10v-1.871h10.286v-2.544H2.81v9.982zm26.81-9.598c-1.525-.431-3.049-.575-4.62-.575a15.071 15.071 0 00-4.619.575 5.42 5.42 0 00-2.667 1.68 5.427 5.427 0 000 5.855 5.297 5.297 0 002.667 1.727c1.524.384 3.048.576 4.619.528a16.463 16.463 0 004.62-.528c1.047-.288 1.951-.864 2.618-1.727a5.427 5.427 0 000-5.855c-.667-.816-1.619-1.392-2.619-1.68zm.237 5.855c-.19.336-.476.624-.81.816-.476.24-1.047.432-1.57.48-.81.096-1.668.144-2.477.144a13.268 13.268 0 01-3.095-.24c-.62-.096-1.19-.384-1.572-.864a2.772 2.772 0 010-3.071c.429-.432 1-.768 1.572-.864 1.047-.192 2.047-.288 3.095-.24.81 0 1.667.048 2.476.144.572.048 1.095.24 1.572.48.333.192.666.48.81.816.19.383.237.815.237 1.247 0 .384-.095.768-.238 1.152zm16.905.192c.476-.24.905-.624 1.19-1.104a4.1 4.1 0 00.429-1.823c0-.576-.095-1.104-.286-1.632-.19-.432-.476-.816-.857-1.056a3.325 3.325 0 00-1.333-.576 6.586 6.586 0 00-1.667-.192h-9.905v9.934h2.953v-2.88h3.762l3.571 2.88h3.714l-3.238-2.591-.81-.48h.62c.619 0 1.285-.192 1.857-.48zm-2.81-1.536h-6.666v-2.303h6.666c.381-.048.762.048 1.048.24.238.24.381.576.333.912a.957.957 0 01-.333.863 2.028 2.028 0 01-1.048.288zm15.238 2.64l-5.952-7.535h-3.571v9.982h2.952v-6.43l5.048 6.43h2.952l5.048-6.43v6.43h2.952v-9.982h-3.524l-5.904 7.535zm19.477-7.535h-3.048l-6.428 9.982h3.523l1.19-1.92h7.334l1.19 1.92H86l-6.476-9.982h-.857zm-3.477 5.999l2.381-3.84 2.381 3.84h-4.761zm34.429-5.999h-3.048l-6.428 9.982h3.524l1.19-1.92h7.333l1.191 1.92h3.571l-6.428-9.982h-.905zm-3.476 5.999l2.381-3.84 2.381 3.84h-4.762zm21.333.912h.619c.667-.048 1.286-.192 1.857-.48.524-.24.905-.624 1.191-1.104.286-.576.428-1.2.428-1.823 0-.576-.095-1.104-.285-1.632-.191-.432-.476-.816-.857-1.056a3.33 3.33 0 00-1.334-.576 6.58 6.58 0 00-1.666-.192h-9.905v9.934h2.952v-2.88h3.762l3.572 2.88h3.714l-3.238-2.591-.81-.48zm-7-2.016v-2.303h6.667c.381-.048.762.048 1.047.24.239.24.381.576.334.912a.956.956 0 01-.334.863 2.024 2.024 0 01-1.047.288h-6.667zm-35.238 0c0-.672.095-1.343.333-2.015.239-.576.572-1.152 1.048-1.584a5.353 5.353 0 011.667-1.008c.714-.24 1.476-.336 2.238-.336h9v2.592h-8.715a2.815 2.815 0 00-1.952.624 2.725 2.725 0 000 3.599c.572.432 1.238.672 1.953.624h8.714v2.591h-9c-.762 0-1.524-.096-2.238-.336a4.008 4.008 0 01-1.667-1.008c-.476-.431-.81-1.007-1.048-1.583-.238-.624-.333-1.296-.333-2.016v-.144zM84.952 6.43c-1.095-.383-2.285-.72-3.571-1.055h-.048v.048a64.368 64.368 0 01-.571 6.094c-.19 1.056-.333 1.968-.524 2.88a29.963 29.963 0 01-.428 1.68c0 .047 0 .095-.048.143-.19.72-.429 1.536-.762 2.496-.429 1.247-.667 1.967-.857 2.447-3.953 9.982-10.62 16.172-11.095 16.172-.477 0-7.048-5.998-11.19-16.076a69 69 0 0111.333-.912c2.142 0 4.19.096 6.19.24a48.221 48.221 0 001.571-5.087 70.108 70.108 0 00-7.761-.431c-4.334-.049-8.62.383-12.858 1.2-.619-1.92-1-3.888-1.19-5.855a62.332 62.332 0 0113.666-1.392c3.191 0 6.382.192 9.524.672.334-1.68.477-3.407.524-5.135A61.503 61.503 0 0067 3.887c-7.286 0-14.143 1.248-18.619 2.88l-.095.047C47.905 28.217 66.429 42.374 67 42.95c.62-.624 18.714-14.349 18.714-36.136-.047-.096-.333-.24-.762-.383z" fill="#1A171B" stroke="#1A171B" stroke-width=".58" stroke-miterlimit="10"/></svg>