<svg width="58" height="54" fill="none" xmlns="http://www.w3.org/2000/svg"><g clip-path="url(#clip0_4_49)"><path fill-rule="evenodd" clip-rule="evenodd" d="M4.26.134H19.7c2.353 0 4.26 1.925 4.26 4.299v25.254h29.02c2.352 0 4.259 1.924 4.259 4.298v15.582c0 2.374-1.907 4.299-4.26 4.299H13.844c-2.352 0-4.26-1.925-4.26-4.299v-1.343H4.26c-2.353 0-4.26-1.925-4.26-4.299V4.433C0 2.059 1.907.134 4.26.134zm5.857 48.09v1.343c0 2.077 1.669 3.761 3.727 3.761H52.98c2.059 0 3.728-1.684 3.728-3.76V33.984c0-2.077-1.67-3.761-3.728-3.761H13.844c-2.058 0-3.727 1.684-3.727 3.761v14.238zm-.533-7.254v6.717H4.26c-2.059 0-3.728-1.684-3.728-3.762V4.433C.532 2.356 2.202.672 4.26.672H19.7c2.059 0 3.727 1.684 3.727 3.76v25.255H21.83V6.045H1.864V40.97h7.72zm0-.537v-6.448c0-2.374 1.908-4.298 4.26-4.298H21.3V6.582H2.396v33.85h7.188zm18.77-27.403c0-.148.119-.269.266-.269 1.999 0 4.988.644 7.484 2.581 2.393 1.858 4.313 4.89 4.484 9.622l2.742-3.113a.265.265 0 01.376-.022.27.27 0 01.022.38l-3.375 3.83-3.66-3.409a.27.27 0 01-.015-.38.265.265 0 01.376-.015l3.004 2.799c-.154-4.607-2.007-7.503-4.279-9.266-2.385-1.85-5.253-2.47-7.159-2.47a.267.267 0 01-.266-.268zM16.773 31.567h34.61v20.15h-34.61v-20.15zm.532.538v19.074H50.85V32.104H17.305zm-5.59 9.671a2.407 2.407 0 012.395-2.418 2.407 2.407 0 012.396 2.418 2.407 2.407 0 01-2.396 2.418 2.407 2.407 0 01-2.396-2.418zm2.395-1.88c-1.029 0-1.863.841-1.863 1.88s.834 1.88 1.863 1.88c1.03 0 1.864-.841 1.864-1.88s-.834-1.88-1.864-1.88z" fill="#000" stroke="#000" stroke-width=".5" stroke-linecap="round"/></g><defs><clipPath id="clip0_4_49"><path fill="#fff" d="M0 0h57.24v54H0z"/></clipPath></defs></svg>