<svg width="58" height="54" viewBox="0 0 58 54" fill="none" xmlns="http://www.w3.org/2000/svg">
<g clip-path="url(#clip0_4_49)">
<path fill-rule="evenodd" clip-rule="evenodd" d="M4.25972 0.134339L19.7012 0.134338C22.0538 0.134338 23.9609 2.05885 23.9609 4.43285L23.9609 29.6866H52.9803C55.3329 29.6866 57.24 31.6111 57.24 33.9851V49.5672C57.24 51.9412 55.3329 53.8657 52.9803 53.8657H13.8441C11.4915 53.8657 9.58437 51.9412 9.58437 49.5672V48.2239H4.25973C1.90715 48.2239 3.77675e-06 46.2994 3.77675e-06 43.9254L1.88837e-06 4.43285C1.79316e-06 2.05885 1.90714 0.134339 4.25972 0.134339ZM10.1168 48.2239V49.5672C10.1168 51.6444 11.7856 53.3284 13.8441 53.3284H52.9803C55.0388 53.3284 56.7075 51.6444 56.7075 49.5672V33.9851C56.7075 31.9078 55.0388 30.2239 52.9803 30.2239H23.9609C23.4411 30.2239 23.1496 30.2239 22.6298 30.2239H21.2986H13.8441C11.7856 30.2239 10.1168 31.9078 10.1168 33.9851V40.4328V48.2239ZM9.58437 40.9702V47.6866H4.25973C2.20122 47.6866 0.532469 46.0026 0.532469 43.9254L0.532467 4.43285C0.532467 2.3556 2.20122 0.671653 4.25972 0.671653L19.7012 0.671652C21.7597 0.671652 23.4285 2.3556 23.4285 4.43285L23.4285 29.6866H21.8311L21.8311 6.04479L1.86363 6.04479L1.86363 40.9702H9.58437ZM9.58437 40.4328V33.9851C9.58437 31.6111 11.4915 29.6866 13.8441 29.6866H21.2986L21.2986 6.5821L2.3961 6.5821L2.3961 40.4328H9.58437ZM28.3538 13.0299C28.3538 12.8815 28.473 12.7612 28.62 12.7612C30.6187 12.7612 33.6077 13.4052 36.1037 15.3423C38.4973 17.1999 40.4174 20.2321 40.5881 24.9641L43.33 21.8514C43.4277 21.7405 43.596 21.7305 43.7059 21.8291C43.8158 21.9276 43.8257 22.0974 43.728 22.2083L40.353 26.0398L36.6926 22.6303C36.5846 22.5296 36.5778 22.3596 36.6776 22.2506C36.7773 22.1416 36.9457 22.1348 37.0538 22.2354L40.0577 25.0336C39.9044 20.4272 38.0509 17.5313 35.7791 15.7682C33.3941 13.9172 30.5261 13.2985 28.62 13.2985C28.473 13.2985 28.3538 13.1782 28.3538 13.0299ZM16.7727 31.5672H51.3829V51.7164H16.7727V31.5672ZM17.3051 32.1045V51.1791H50.8504V32.1045H17.3051ZM11.7142 41.7761C11.7142 40.4408 12.787 39.3582 14.1103 39.3582C15.4337 39.3582 16.5064 40.4408 16.5064 41.7761C16.5064 43.1115 15.4337 44.194 14.1103 44.194C12.787 44.194 11.7142 43.1115 11.7142 41.7761ZM14.1103 39.8955C13.0811 39.8955 12.2467 40.7375 12.2467 41.7761C12.2467 42.8148 13.0811 43.6567 14.1103 43.6567C15.1396 43.6567 15.974 42.8148 15.974 41.7761C15.974 40.7375 15.1396 39.8955 14.1103 39.8955Z" fill="black" stroke="black" stroke-width="0.5" stroke-linecap="round"/>
</g>
<defs>
<clipPath id="clip0_4_49">
<rect width="57.24" height="54" fill="white"/>
</clipPath>
</defs>
</svg>
