<svg width="135" height="68" viewBox="0 0 135 68" fill="none" xmlns="http://www.w3.org/2000/svg">
<path d="M2.80952 63.3451H5.76191V60.0819H15.7619V57.7784H5.76191V55.9068H16.0476V53.3634H2.80952V63.3451Z" fill="#1A171B" stroke="#1A171B" stroke-width="0.58" stroke-miterlimit="10"/>
<path d="M29.6191 53.7474C28.0952 53.3155 26.5714 53.1715 25 53.1715C23.4286 53.1235 21.9048 53.3155 20.381 53.7474C19.3333 54.0353 18.4286 54.6112 17.7143 55.427C16.5714 57.2026 16.5714 59.506 17.7143 61.2816C18.381 62.0974 19.3333 62.7213 20.381 63.0092C21.9048 63.3931 23.4286 63.585 25 63.5371C26.5714 63.585 28.1429 63.3931 29.6191 63.0092C30.6667 62.7213 31.5714 62.1454 32.2381 61.2816C33.381 59.506 33.381 57.2026 32.2381 55.427C31.5714 54.6112 30.6191 54.0353 29.6191 53.7474ZM29.8571 59.602C29.6667 59.9379 29.381 60.2258 29.0476 60.4178C28.5714 60.6577 28 60.8497 27.4762 60.8977C26.6667 60.9937 25.8095 61.0416 25 61.0416C23.9524 61.0896 22.9048 60.9937 21.9048 60.8017C21.2857 60.7057 20.7143 60.4178 20.3333 59.9379C19.7143 59.0261 19.7143 57.7784 20.3333 56.8666C20.7619 56.4347 21.3333 56.0988 21.9048 56.0028C22.9524 55.8109 23.9524 55.7149 25 55.7629C25.8095 55.7629 26.6667 55.8109 27.4762 55.9069C28.0476 55.9548 28.5714 56.1468 29.0476 56.3867C29.381 56.5787 29.7143 56.8666 29.8571 57.2026C30.0476 57.5865 30.0952 58.0184 30.0952 58.4503C30.0952 58.8342 30 59.2181 29.8571 59.602Z" fill="#1A171B" stroke="#1A171B" stroke-width="0.58" stroke-miterlimit="10"/>
<path d="M46.7619 59.7939C47.2381 59.554 47.6667 59.1701 47.9524 58.6902C48.2381 58.1143 48.381 57.4905 48.381 56.8666C48.381 56.2908 48.2857 55.7629 48.0952 55.235C47.9048 54.8031 47.619 54.4192 47.2381 54.1793C46.8571 53.8913 46.381 53.6994 45.9048 53.6034C45.3333 53.4594 44.8095 53.4114 44.2381 53.4114H34.3333V63.3451H37.2857V60.4658H41.0476L44.619 63.3451H48.3333L45.0952 60.7537L44.2857 60.2738H44.9048C45.5238 60.2738 46.1905 60.0819 46.7619 59.7939ZM43.9524 58.2583H37.2857V55.9548H43.9524C44.3333 55.9068 44.7143 56.0028 45 56.1948C45.2381 56.4347 45.381 56.7706 45.3333 57.1066C45.381 57.4425 45.2381 57.7784 45 57.9704C44.6667 58.1623 44.3333 58.2583 43.9524 58.2583Z" fill="#1A171B" stroke="#1A171B" stroke-width="0.58" stroke-miterlimit="10"/>
<path d="M59.1905 60.8977L53.2381 53.3634H49.6667V63.3451H52.6191V56.9146L57.6667 63.3451H60.6191L65.6667 56.9146V63.3451H68.6191V53.3634H65.0952L59.1905 60.8977Z" fill="#1A171B" stroke="#1A171B" stroke-width="0.58" stroke-miterlimit="10"/>
<path d="M78.6667 53.3634H75.6191L69.1905 63.3451H72.7143L73.9048 61.4255H81.2381L82.4286 63.3451H86L79.5238 53.3634H78.6667ZM75.1905 59.362L77.5714 55.5229L79.9524 59.362H75.1905Z" fill="#1A171B" stroke="#1A171B" stroke-width="0.58" stroke-miterlimit="10"/>
<path d="M109.619 53.3634H106.571L100.143 63.3451H103.667L104.857 61.4255H112.19L113.381 63.3451H116.952L110.524 53.3634H109.619ZM106.143 59.362L108.524 55.5229L110.905 59.362H106.143Z" fill="#1A171B" stroke="#1A171B" stroke-width="0.58" stroke-miterlimit="10"/>
<path d="M127.476 60.2738H128.095C128.762 60.2258 129.381 60.0819 129.952 59.7939C130.476 59.554 130.857 59.1701 131.143 58.6902C131.429 58.1143 131.571 57.4905 131.571 56.8666C131.571 56.2908 131.476 55.7629 131.286 55.235C131.095 54.8031 130.81 54.4192 130.429 54.1793C130.048 53.8913 129.571 53.6994 129.095 53.6034C128.524 53.4594 128 53.4114 127.429 53.4114H117.524V63.3451H120.476V60.4658H124.238L127.81 63.3451H131.524L128.286 60.7537L127.476 60.2738ZM120.476 58.2583V55.9548H127.143C127.524 55.9068 127.905 56.0028 128.19 56.1948C128.429 56.4347 128.571 56.7706 128.524 57.1066C128.571 57.4425 128.429 57.7784 128.19 57.9704C127.857 58.1623 127.524 58.2583 127.143 58.2583H120.476Z" fill="#1A171B" stroke="#1A171B" stroke-width="0.58" stroke-miterlimit="10"/>
<path d="M85.2381 58.2583C85.2381 57.5865 85.3333 56.9146 85.5714 56.2428C85.8095 55.6669 86.1429 55.091 86.619 54.6591C87.0952 54.2272 87.6667 53.8913 88.2857 53.6514C89 53.4114 89.7619 53.3155 90.5238 53.3155H99.5238V55.9069H90.8095C90.0952 55.8589 89.381 56.0988 88.8571 56.5307C87.9524 57.5385 87.9524 59.1221 88.8571 60.1299C89.4286 60.5618 90.0952 60.8017 90.8095 60.7537H99.5238V63.3451H90.5238C89.7619 63.3451 89 63.2491 88.2857 63.0092C87.6667 62.8172 87.0952 62.4813 86.619 62.0014C86.1429 61.5695 85.8095 60.9937 85.5714 60.4178C85.3333 59.7939 85.2381 59.1221 85.2381 58.4023V58.2583Z" fill="#1A171B" stroke="#1A171B" stroke-width="0.58" stroke-miterlimit="10"/>
<path d="M84.9524 6.4305C83.8571 6.04659 82.6667 5.71067 81.381 5.37475H81.3333V5.42274C81.2381 7.48625 81.0476 9.50178 80.7619 11.5173C80.5714 12.5731 80.4286 13.4848 80.2381 14.3966C80.1429 14.8285 80 15.4044 79.8095 16.0762C79.8095 16.1242 79.8095 16.1722 79.7619 16.2202C79.5714 16.94 79.3333 17.7558 79 18.7156C78.5714 19.9633 78.3333 20.6831 78.1429 21.163C74.1905 31.1447 67.5238 37.3352 67.0476 37.3352C66.5714 37.3352 60 31.3366 55.8571 21.259C59.6191 20.6352 63.381 20.3472 67.1905 20.3472C69.3333 20.3472 71.381 20.4432 73.381 20.5872C74 18.9076 74.5238 17.228 74.9524 15.5004C72.381 15.2124 69.7619 15.0685 67.1905 15.0685C62.8572 15.0205 58.5714 15.4524 54.3333 16.2682C53.7143 14.3486 53.3333 12.3811 53.1429 10.4136C57.6191 9.45379 62.2381 8.9739 66.8095 9.02189C70 9.02189 73.1905 9.21385 76.3333 9.69373C76.6667 8.01413 76.8095 6.28653 76.8571 4.55894C73.6191 4.07905 70.2857 3.83911 67 3.8871C59.7143 3.8871 52.8571 5.13481 48.381 6.76642L48.2857 6.81441C47.9048 28.2174 66.4286 42.374 67 42.9499C67.6191 42.3261 85.7143 28.6013 85.7143 6.81441C85.6667 6.71843 85.381 6.57447 84.9524 6.4305Z" fill="#1A171B" stroke="#1A171B" stroke-width="0.58" stroke-miterlimit="10"/>
</svg>
